<svg width="225" height="165" viewBox="0 0 225 165" fill="none" xmlns="http://www.w3.org/2000/svg">
<rect width="225" height="165" fill="url(#paint0_linear)"/>
<rect x="69" y="52" width="87" height="27" fill="#C4C4C4"/>
<path d="M136 70L156 52V79H69L136 70Z" fill="#BBB9B9"/>
<rect y="119" width="225" height="32" fill="#C4C4C4"/>
<path d="M62.042 142L65.976 132.732H67.292L71.226 142H70.064L68.93 139.312H64.338L63.204 142H62.042ZM64.744 138.346H68.524L66.634 133.824L64.744 138.346ZM72.1375 133.824V132.452H73.2715V133.824H72.1375ZM72.1795 142V135H73.2295V142H72.1795ZM75.0506 142V135H76.1006V136.722C76.138 136.601 76.208 136.442 76.3106 136.246C76.4226 136.041 76.5813 135.835 76.7866 135.63C76.992 135.425 77.2486 135.252 77.5566 135.112C77.874 134.963 78.2473 134.888 78.6766 134.888H78.7466V135.938H78.6206C78.098 135.938 77.6453 136.083 77.2626 136.372C76.8893 136.652 76.6 137.021 76.3946 137.478C76.1986 137.926 76.1006 138.407 76.1006 138.92V142H75.0506ZM86.9733 142.112C86.0493 142.112 85.2513 141.902 84.5793 141.482C83.9073 141.053 83.3893 140.479 83.0253 139.76C82.6706 139.041 82.4933 138.243 82.4933 137.366C82.4933 136.489 82.6706 135.691 83.0253 134.972C83.3893 134.253 83.9073 133.684 84.5793 133.264C85.2513 132.835 86.0493 132.62 86.9733 132.62C87.6733 132.62 88.3033 132.746 88.8633 132.998C89.4233 133.241 89.8993 133.577 90.2913 134.006C90.6833 134.435 90.9773 134.935 91.1733 135.504H90.0673C89.8339 134.935 89.4653 134.482 88.9613 134.146C88.4573 133.81 87.8226 133.642 87.0573 133.642C86.3106 133.642 85.6713 133.81 85.1393 134.146C84.6166 134.473 84.2199 134.916 83.9493 135.476C83.6786 136.036 83.5433 136.666 83.5433 137.366C83.5433 138.057 83.6786 138.687 83.9493 139.256C84.2199 139.816 84.6166 140.264 85.1393 140.6C85.6713 140.927 86.3106 141.09 87.0573 141.09C87.8226 141.09 88.4573 140.922 88.9613 140.586C89.4653 140.25 89.8339 139.797 90.0673 139.228H91.1733C90.9773 139.788 90.6833 140.287 90.2913 140.726C89.8993 141.155 89.4233 141.496 88.8633 141.748C88.3033 141.991 87.6733 142.112 86.9733 142.112ZM95.5613 142.112C94.8519 142.112 94.2359 141.953 93.7133 141.636C93.1906 141.309 92.7893 140.871 92.5093 140.32C92.2293 139.769 92.0893 139.163 92.0893 138.5C92.0893 137.828 92.2293 137.221 92.5093 136.68C92.7893 136.129 93.1906 135.695 93.7133 135.378C94.2359 135.051 94.8519 134.888 95.5613 134.888C96.2799 134.888 96.8959 135.051 97.4093 135.378C97.9319 135.695 98.3333 136.129 98.6133 136.68C98.8933 137.221 99.0333 137.828 99.0333 138.5C99.0333 139.163 98.8933 139.769 98.6133 140.32C98.3333 140.871 97.9319 141.309 97.4093 141.636C96.8959 141.953 96.2799 142.112 95.5613 142.112ZM95.5613 141.16C96.0839 141.16 96.5226 141.039 96.8773 140.796C97.2413 140.553 97.5166 140.231 97.7033 139.83C97.8899 139.419 97.9833 138.976 97.9833 138.5C97.9833 138.015 97.8899 137.571 97.7033 137.17C97.5166 136.769 97.2413 136.447 96.8773 136.204C96.5226 135.961 96.0839 135.84 95.5613 135.84C95.0479 135.84 94.6093 135.961 94.2453 136.204C93.8813 136.447 93.6059 136.769 93.4193 137.17C93.2326 137.571 93.1393 138.015 93.1393 138.5C93.1393 138.976 93.2326 139.419 93.4193 139.83C93.6059 140.231 93.8813 140.553 94.2453 140.796C94.6093 141.039 95.0479 141.16 95.5613 141.16ZM100.426 142V135H101.476V136.092C101.728 135.756 102.036 135.471 102.4 135.238C102.764 135.005 103.23 134.888 103.8 134.888C104.285 134.888 104.738 135.005 105.158 135.238C105.587 135.462 105.932 135.803 106.194 136.26C106.464 136.708 106.6 137.263 106.6 137.926V142H105.55V137.954C105.55 137.319 105.368 136.811 105.004 136.428C104.64 136.036 104.168 135.84 103.59 135.84C103.198 135.84 102.843 135.929 102.526 136.106C102.208 136.283 101.952 136.535 101.756 136.862C101.569 137.179 101.476 137.548 101.476 137.968V142H100.426ZM111.309 142.112C110.628 142.112 110.031 141.953 109.517 141.636C109.013 141.309 108.621 140.871 108.341 140.32C108.061 139.769 107.921 139.163 107.921 138.5C107.921 137.828 108.061 137.221 108.341 136.68C108.621 136.129 109.013 135.695 109.517 135.378C110.031 135.051 110.628 134.888 111.309 134.888C111.888 134.888 112.383 135 112.793 135.224C113.213 135.448 113.554 135.751 113.815 136.134V132.2H114.865V142H113.815V140.88C113.554 141.253 113.213 141.552 112.793 141.776C112.383 142 111.888 142.112 111.309 142.112ZM111.449 141.16C111.972 141.16 112.411 141.039 112.765 140.796C113.129 140.553 113.405 140.231 113.591 139.83C113.778 139.419 113.871 138.976 113.871 138.5C113.871 138.015 113.778 137.571 113.591 137.17C113.405 136.769 113.129 136.447 112.765 136.204C112.411 135.961 111.972 135.84 111.449 135.84C110.936 135.84 110.493 135.961 110.119 136.204C109.746 136.447 109.461 136.769 109.265 137.17C109.069 137.571 108.971 138.015 108.971 138.5C108.971 138.976 109.069 139.419 109.265 139.83C109.461 140.231 109.746 140.553 110.119 140.796C110.493 141.039 110.936 141.16 111.449 141.16ZM116.639 133.824V132.452H117.773V133.824H116.639ZM116.681 142V135H117.731V142H116.681ZM120.309 142V135.924H118.881V135H120.309V132.494H121.359V135H122.969V135.924H121.359V142H120.309ZM124.077 133.824V132.452H125.211V133.824H124.077ZM124.119 142V135H125.169V142H124.119ZM130.028 142.112C129.319 142.112 128.703 141.953 128.18 141.636C127.657 141.309 127.256 140.871 126.976 140.32C126.696 139.769 126.556 139.163 126.556 138.5C126.556 137.828 126.696 137.221 126.976 136.68C127.256 136.129 127.657 135.695 128.18 135.378C128.703 135.051 129.319 134.888 130.028 134.888C130.747 134.888 131.363 135.051 131.876 135.378C132.399 135.695 132.8 136.129 133.08 136.68C133.36 137.221 133.5 137.828 133.5 138.5C133.5 139.163 133.36 139.769 133.08 140.32C132.8 140.871 132.399 141.309 131.876 141.636C131.363 141.953 130.747 142.112 130.028 142.112ZM130.028 141.16C130.551 141.16 130.989 141.039 131.344 140.796C131.708 140.553 131.983 140.231 132.17 139.83C132.357 139.419 132.45 138.976 132.45 138.5C132.45 138.015 132.357 137.571 132.17 137.17C131.983 136.769 131.708 136.447 131.344 136.204C130.989 135.961 130.551 135.84 130.028 135.84C129.515 135.84 129.076 135.961 128.712 136.204C128.348 136.447 128.073 136.769 127.886 137.17C127.699 137.571 127.606 138.015 127.606 138.5C127.606 138.976 127.699 139.419 127.886 139.83C128.073 140.231 128.348 140.553 128.712 140.796C129.076 141.039 129.515 141.16 130.028 141.16ZM134.892 142V135H135.942V136.092C136.194 135.756 136.502 135.471 136.866 135.238C137.23 135.005 137.697 134.888 138.266 134.888C138.752 134.888 139.204 135.005 139.624 135.238C140.054 135.462 140.399 135.803 140.66 136.26C140.931 136.708 141.066 137.263 141.066 137.926V142H140.016V137.954C140.016 137.319 139.834 136.811 139.47 136.428C139.106 136.036 138.635 135.84 138.056 135.84C137.664 135.84 137.31 135.929 136.992 136.106C136.675 136.283 136.418 136.535 136.222 136.862C136.036 137.179 135.942 137.548 135.942 137.968V142H134.892ZM145.93 142.112C145.221 142.112 144.6 141.953 144.068 141.636C143.536 141.309 143.121 140.871 142.822 140.32C142.533 139.769 142.388 139.163 142.388 138.5C142.388 137.828 142.528 137.221 142.808 136.68C143.088 136.129 143.489 135.695 144.012 135.378C144.535 135.051 145.151 134.888 145.86 134.888C146.579 134.888 147.195 135.051 147.708 135.378C148.231 135.695 148.632 136.129 148.912 136.68C149.192 137.221 149.332 137.828 149.332 138.5V138.92H143.466C143.522 139.331 143.653 139.709 143.858 140.054C144.073 140.39 144.357 140.661 144.712 140.866C145.067 141.062 145.477 141.16 145.944 141.16C146.439 141.16 146.854 141.053 147.19 140.838C147.526 140.614 147.787 140.329 147.974 139.984H149.122C148.879 140.609 148.492 141.123 147.96 141.524C147.437 141.916 146.761 142.112 145.93 142.112ZM143.48 137.94H148.24C148.147 137.343 147.895 136.843 147.484 136.442C147.073 136.041 146.532 135.84 145.86 135.84C145.188 135.84 144.647 136.041 144.236 136.442C143.835 136.843 143.583 137.343 143.48 137.94ZM150.615 142V135H151.665V136.722C151.702 136.601 151.772 136.442 151.875 136.246C151.987 136.041 152.146 135.835 152.351 135.63C152.556 135.425 152.813 135.252 153.121 135.112C153.438 134.963 153.812 134.888 154.241 134.888H154.311V135.938H154.185C153.662 135.938 153.21 136.083 152.827 136.372C152.454 136.652 152.164 137.021 151.959 137.478C151.763 137.926 151.665 138.407 151.665 138.92V142H150.615ZM157.989 142.112C157.345 142.112 156.799 142.005 156.351 141.79C155.913 141.575 155.577 141.295 155.343 140.95C155.11 140.595 154.979 140.213 154.951 139.802H156.043C156.071 140.035 156.151 140.264 156.281 140.488C156.421 140.703 156.631 140.88 156.911 141.02C157.191 141.151 157.555 141.216 158.003 141.216C158.143 141.216 158.316 141.202 158.521 141.174C158.727 141.146 158.923 141.095 159.109 141.02C159.305 140.945 159.469 140.833 159.599 140.684C159.73 140.535 159.795 140.343 159.795 140.11C159.795 139.821 159.683 139.597 159.459 139.438C159.235 139.279 158.946 139.158 158.591 139.074C158.237 138.981 157.859 138.892 157.457 138.808C157.065 138.724 156.692 138.617 156.337 138.486C155.983 138.346 155.693 138.155 155.469 137.912C155.245 137.66 155.133 137.319 155.133 136.89C155.133 136.255 155.362 135.765 155.819 135.42C156.286 135.065 156.972 134.888 157.877 134.888C158.493 134.888 158.993 134.986 159.375 135.182C159.767 135.369 160.061 135.611 160.257 135.91C160.463 136.209 160.584 136.531 160.621 136.876H159.557C159.52 136.577 159.371 136.321 159.109 136.106C158.857 135.891 158.437 135.784 157.849 135.784C156.739 135.784 156.183 136.12 156.183 136.792C156.183 137.072 156.295 137.287 156.519 137.436C156.743 137.585 157.033 137.707 157.387 137.8C157.742 137.884 158.115 137.968 158.507 138.052C158.909 138.127 159.287 138.234 159.641 138.374C159.996 138.514 160.285 138.715 160.509 138.976C160.733 139.228 160.845 139.573 160.845 140.012C160.845 140.693 160.584 141.216 160.061 141.58C159.548 141.935 158.857 142.112 157.989 142.112Z" fill="black"/>
<path d="M99.3774 63V56.38H100.127V59.32H103.977V56.38H104.727V63H103.977V60.05H100.127V63H99.3774ZM108.36 63.08C107.853 63.08 107.413 62.9667 107.04 62.74C106.667 62.5067 106.38 62.1933 106.18 61.8C105.98 61.4067 105.88 60.9733 105.88 60.5C105.88 60.02 105.98 59.5867 106.18 59.2C106.38 58.8067 106.667 58.4967 107.04 58.27C107.413 58.0367 107.853 57.92 108.36 57.92C108.873 57.92 109.313 58.0367 109.68 58.27C110.053 58.4967 110.34 58.8067 110.54 59.2C110.74 59.5867 110.84 60.02 110.84 60.5C110.84 60.9733 110.74 61.4067 110.54 61.8C110.34 62.1933 110.053 62.5067 109.68 62.74C109.313 62.9667 108.873 63.08 108.36 63.08ZM108.36 62.4C108.733 62.4 109.047 62.3133 109.3 62.14C109.56 61.9667 109.757 61.7367 109.89 61.45C110.023 61.1567 110.09 60.84 110.09 60.5C110.09 60.1533 110.023 59.8367 109.89 59.55C109.757 59.2633 109.56 59.0333 109.3 58.86C109.047 58.6867 108.733 58.6 108.36 58.6C107.993 58.6 107.68 58.6867 107.42 58.86C107.16 59.0333 106.963 59.2633 106.83 59.55C106.697 59.8367 106.63 60.1533 106.63 60.5C106.63 60.84 106.697 61.1567 106.83 61.45C106.963 61.7367 107.16 61.9667 107.42 62.14C107.68 62.3133 107.993 62.4 108.36 62.4ZM111.835 63V58H112.585V58.76C112.698 58.56 112.878 58.37 113.125 58.19C113.371 58.01 113.698 57.92 114.105 57.92C114.438 57.92 114.745 58.01 115.025 58.19C115.311 58.3633 115.535 58.61 115.695 58.93C115.761 58.8167 115.865 58.68 116.005 58.52C116.151 58.36 116.341 58.22 116.575 58.1C116.808 57.98 117.088 57.92 117.415 57.92C117.735 57.92 118.035 58.0033 118.315 58.17C118.595 58.3367 118.821 58.5767 118.995 58.89C119.175 59.1967 119.265 59.56 119.265 59.98V63H118.515V60C118.515 59.58 118.395 59.2433 118.155 58.99C117.921 58.73 117.628 58.6 117.275 58.6C116.908 58.6 116.591 58.7233 116.325 58.97C116.058 59.2167 115.925 59.5633 115.925 60.01V63H115.175V60C115.175 59.58 115.055 59.2433 114.815 58.99C114.581 58.73 114.288 58.6 113.935 58.6C113.568 58.6 113.251 58.7233 112.985 58.97C112.718 59.2167 112.585 59.5633 112.585 60.01V63H111.835ZM122.736 63.08C122.23 63.08 121.786 62.9667 121.406 62.74C121.026 62.5067 120.73 62.1933 120.516 61.8C120.31 61.4067 120.206 60.9733 120.206 60.5C120.206 60.02 120.306 59.5867 120.506 59.2C120.706 58.8067 120.993 58.4967 121.366 58.27C121.74 58.0367 122.18 57.92 122.686 57.92C123.2 57.92 123.64 58.0367 124.006 58.27C124.38 58.4967 124.666 58.8067 124.866 59.2C125.066 59.5867 125.166 60.02 125.166 60.5V60.8H120.976C121.016 61.0933 121.11 61.3633 121.256 61.61C121.41 61.85 121.613 62.0433 121.866 62.19C122.12 62.33 122.413 62.4 122.746 62.4C123.1 62.4 123.396 62.3233 123.636 62.17C123.876 62.01 124.063 61.8067 124.196 61.56H125.016C124.843 62.0067 124.566 62.3733 124.186 62.66C123.813 62.94 123.33 63.08 122.736 63.08ZM120.986 60.1H124.386C124.32 59.6733 124.14 59.3167 123.846 59.03C123.553 58.7433 123.166 58.6 122.686 58.6C122.206 58.6 121.82 58.7433 121.526 59.03C121.24 59.3167 121.06 59.6733 120.986 60.1ZM105.779 73.08C105.233 73.08 104.746 72.96 104.319 72.72C103.899 72.4733 103.569 72.13 103.329 71.69C103.089 71.25 102.969 70.7367 102.969 70.15V66.38H103.719V70.17C103.719 70.6833 103.816 71.1 104.009 71.42C104.209 71.74 104.466 71.9767 104.779 72.13C105.099 72.2767 105.433 72.35 105.779 72.35C106.133 72.35 106.466 72.2767 106.779 72.13C107.093 71.9767 107.349 71.74 107.549 71.42C107.749 71.1 107.849 70.6833 107.849 70.17V66.38H108.599V70.15C108.599 70.73 108.479 71.24 108.239 71.68C107.999 72.12 107.666 72.4633 107.239 72.71C106.819 72.9567 106.333 73.08 105.779 73.08ZM110.139 73V66.38H113.119C113.826 66.38 114.382 66.5733 114.789 66.96C115.196 67.34 115.399 67.8567 115.399 68.51C115.399 69.1633 115.196 69.6833 114.789 70.07C114.382 70.45 113.826 70.64 113.119 70.64H110.889V73H110.139ZM110.889 69.94H113.069C113.589 69.94 113.982 69.8133 114.249 69.56C114.516 69.3067 114.649 68.9567 114.649 68.51C114.649 68.07 114.516 67.7233 114.249 67.47C113.982 67.2167 113.589 67.09 113.069 67.09H110.889V69.94ZM118.788 73.08C118.135 73.08 117.605 72.9933 117.198 72.82C116.792 72.64 116.485 72.3933 116.278 72.08C116.078 71.7667 115.962 71.4133 115.928 71.02H116.708C116.728 71.34 116.835 71.6 117.028 71.8C117.222 71.9933 117.475 72.1367 117.788 72.23C118.108 72.3233 118.458 72.37 118.838 72.37C119.398 72.37 119.842 72.2733 120.168 72.08C120.495 71.88 120.658 71.5867 120.658 71.2C120.658 70.9667 120.575 70.78 120.408 70.64C120.248 70.4933 120.032 70.3733 119.758 70.28C119.492 70.1867 119.198 70.1033 118.878 70.03C118.558 69.95 118.235 69.8667 117.908 69.78C117.588 69.6933 117.292 69.5833 117.018 69.45C116.752 69.3167 116.535 69.1467 116.368 68.94C116.208 68.7267 116.128 68.4567 116.128 68.13C116.128 67.59 116.335 67.15 116.748 66.81C117.168 66.47 117.792 66.3 118.618 66.3C119.205 66.3 119.688 66.39 120.068 66.57C120.448 66.7433 120.732 66.9733 120.918 67.26C121.112 67.5467 121.218 67.8567 121.238 68.19H120.468C120.428 67.8567 120.262 67.5767 119.968 67.35C119.675 67.1167 119.225 67 118.618 67C118.245 67 117.942 67.0367 117.708 67.11C117.475 67.1833 117.295 67.28 117.168 67.4C117.048 67.5133 116.965 67.6333 116.918 67.76C116.878 67.8867 116.858 68.0067 116.858 68.12C116.858 68.34 116.938 68.52 117.098 68.66C117.265 68.7933 117.482 68.9067 117.748 69C118.022 69.0867 118.322 69.1667 118.648 69.24C118.975 69.3133 119.298 69.3967 119.618 69.49C119.945 69.5767 120.242 69.69 120.508 69.83C120.782 69.9633 120.998 70.1367 121.158 70.35C121.325 70.5633 121.408 70.8367 121.408 71.17C121.408 71.7833 121.175 72.2567 120.708 72.59C120.242 72.9167 119.602 73.08 118.788 73.08Z" fill="black"/>
<path d="M205 26.1423C205 21.08 200.449 17 194.806 17H31.2354C25.5915 17 21 21.08 21 26.1423V65.3836H205V26.1423Z" fill="white"/>
<path d="M21 65.3836V69.4599C21 73.3696 22.7409 77.3979 26.9003 79.87C28.7993 80.7818 31.6545 81.5968 35.7813 81.5968C36.095 81.5968 36.3984 81.6068 36.6849 81.6068H189.355C189.642 81.6068 189.942 81.5968 190.255 81.5968C194.382 81.5968 197.221 80.7818 199.12 79.87C203.28 77.3975 205 73.3696 205 69.4599V65.3836H21Z" fill="#ECECEC"/>
<path d="M200.85 58.6743C200.85 56.8735 199.215 55.4052 197.207 55.4052H28.795C26.787 55.4052 25.1523 56.8735 25.1523 58.6743L25.5541 65.3836H200.448L200.85 58.6743" fill="#CFCECD"/>
<path d="M28.1719 77.785C28.8475 78.1093 29.8618 78.4219 31.3301 78.4219C31.4416 78.4219 31.5482 78.4486 31.6502 78.4486H194.351C194.453 78.4486 194.56 78.4219 194.672 78.4219C196.14 78.4219 197.154 78.1203 197.83 77.7959C199.31 76.9164 199.927 75.4828 199.927 74.0916L200.448 65.3837H25.554L26.0757 74.0859C26.0757 75.4771 26.6923 76.9055 28.1719 77.785" fill="#BBB9B8"/>
<path d="M199.238 67.7525C199.238 68.1092 198.916 68.3983 198.517 68.3983H27.3228C26.925 68.3983 26.6026 68.1092 26.6026 67.7525C26.6026 67.3955 26.925 67.1064 27.3228 67.1064H198.517C198.916 67.1064 199.238 67.3955 199.238 67.7525Z" fill="#848485"/>
<path d="M198.197 70.5524C198.197 70.909 197.874 71.1981 197.476 71.1981H28.6033C28.2054 71.1981 27.8829 70.909 27.8829 70.5524C27.8829 70.1953 28.2054 69.9061 28.6033 69.9061H197.476C197.874 69.9061 198.197 70.1953 198.197 70.5524Z" fill="#848485"/>
<path d="M197.477 73.2799C197.477 73.6366 197.154 73.9261 196.756 73.9261H29.2435C28.8457 73.9261 28.5233 73.6366 28.5233 73.2799C28.5233 72.9232 28.8457 72.6337 29.2435 72.6337H196.756C197.154 72.6337 197.477 72.9232 197.477 73.2799Z" fill="#848485"/>
<path d="M196.997 76.0075C196.997 76.3647 196.675 76.6538 196.277 76.6538H29.7239C29.326 76.6538 29.0036 76.3647 29.0036 76.0075C29.0036 75.6508 29.326 75.3617 29.7239 75.3617H196.277C196.675 75.3617 196.997 75.6508 196.997 76.0075" fill="#848485"/>
<path d="M138.011 50.5238C138.011 51.5547 137.08 52.3902 135.93 52.3902H90.0706C88.9213 52.3902 87.9891 51.5547 87.9891 50.5238C87.9891 49.493 88.9213 48.6571 90.0706 48.6571H135.93C137.08 48.6571 138.011 49.493 138.011 50.5238Z" fill="#CFCECD"/>
<path d="M196.758 33.8742L195.665 33.3295L196.477 33.1099C196.569 33.0856 196.621 32.9983 196.594 32.9154C196.574 32.8499 196.507 32.8042 196.433 32.8042C196.418 32.8042 196.402 32.8062 196.386 32.8106L195.242 33.1204L194.53 32.7658L195.873 32.4143C195.964 32.3897 196.019 32.3019 195.993 32.2222C195.97 32.156 195.904 32.1106 195.829 32.1106C195.812 32.1106 195.795 32.1126 195.779 32.1171L194.105 32.5543L191.511 31.2589L193.33 31.0807C193.423 31.0714 193.492 30.9945 193.485 30.9087C193.473 30.8242 193.39 30.7627 193.296 30.7717L191.229 30.9738L193.741 29.4792L195.284 29.8517C195.302 29.8561 195.324 29.8573 195.336 29.8573C195.413 29.8557 195.477 29.8096 195.496 29.7433L195.497 29.7405C195.509 29.7 195.504 29.6579 195.481 29.6216C195.459 29.5864 195.424 29.5613 195.38 29.5512L194.129 29.2474L194.801 28.8479L195.888 29.1035C195.904 29.1064 195.92 29.1092 195.934 29.108L195.942 29.1076C196.016 29.1068 196.082 29.0582 196.103 28.9894C196.115 28.9499 196.109 28.909 196.086 28.8738C196.063 28.8386 196.025 28.8131 195.98 28.8026L195.189 28.6162L196.249 27.987C196.327 27.9396 196.351 27.841 196.298 27.7719L196.297 27.769C196.268 27.7269 196.215 27.7019 196.158 27.7019C196.124 27.7019 196.09 27.7108 196.062 27.7278L195.012 28.355L195.18 27.5984C195.198 27.5134 195.137 27.4338 195.043 27.4172C195.032 27.4155 195.023 27.4148 195.012 27.4148C194.93 27.4148 194.859 27.4673 194.84 27.5434L194.608 28.5956L193.92 29.0004L194.214 27.7669C194.234 27.6845 194.174 27.6023 194.08 27.583C194.07 27.5814 194.059 27.5801 194.05 27.5801C193.967 27.5801 193.895 27.632 193.88 27.7027L193.517 29.2455L191.248 30.595L192.135 29.1083C192.158 29.0707 192.163 29.0283 192.15 28.9878C192.136 28.949 192.107 28.917 192.069 28.8985C192.044 28.886 192.017 28.8799 191.989 28.8799C191.926 28.8799 191.866 28.9122 191.837 28.9623L190.917 30.4987L190.873 27.7391L192.067 26.7435C192.135 26.6852 192.139 26.5865 192.074 26.5234C192.041 26.4915 191.999 26.4741 191.951 26.4741C191.907 26.4741 191.866 26.4891 191.832 26.5166L190.866 27.3245L190.852 26.5991L191.689 25.8873C191.724 25.8583 191.744 25.8202 191.746 25.7785C191.748 25.7373 191.73 25.698 191.698 25.6682C191.665 25.6354 191.621 25.6176 191.574 25.6176C191.53 25.6176 191.489 25.633 191.457 25.6605L190.846 26.1825L190.829 25.0045C190.826 24.9209 190.751 24.8537 190.659 24.8537H190.654C190.56 24.8557 190.483 24.9278 190.484 25.0114L190.505 26.1591L189.9 25.6427C189.868 25.616 189.826 25.601 189.783 25.601C189.734 25.601 189.689 25.6184 189.656 25.6503C189.59 25.713 189.592 25.8121 189.66 25.8712L190.505 26.5958L190.522 27.3319L189.529 26.4701C189.499 26.4422 189.458 26.4276 189.415 26.4276C189.367 26.4276 189.322 26.4446 189.288 26.4765C189.222 26.5388 189.223 26.6383 189.293 26.697L190.527 27.7735L190.572 30.4651L189.566 29.0056C189.536 28.9616 189.48 28.9341 189.42 28.9341C189.388 28.9341 189.359 28.9422 189.333 28.9571L189.33 28.9587C189.289 28.981 189.262 29.0154 189.251 29.0559C189.241 29.0966 189.248 29.1391 189.273 29.1743L190.293 30.6536L187.864 29.442L187.522 28.0182C187.505 27.947 187.436 27.8964 187.357 27.8964C187.343 27.8964 187.331 27.8977 187.319 27.9C187.224 27.9194 187.166 28.002 187.187 28.0881L187.461 29.2422L186.763 28.8937L186.51 27.8867C186.495 27.8171 186.427 27.7678 186.349 27.7678C186.336 27.7678 186.324 27.769 186.31 27.7719C186.262 27.7819 186.221 27.807 186.197 27.8426C186.174 27.8774 186.167 27.9182 186.178 27.9575L186.363 28.6926L185.225 28.1281C185.2 28.1147 185.173 28.1083 185.145 28.1083C185.083 28.1083 185.024 28.1399 184.994 28.19C184.97 28.2268 184.965 28.2696 184.979 28.3097C184.992 28.3486 185.02 28.3801 185.059 28.3991L186.168 28.9518L185.365 29.169C185.273 29.1941 185.219 29.2875 185.246 29.3696C185.267 29.4332 185.336 29.4849 185.412 29.4849H185.417C185.434 29.4849 185.44 29.478 185.456 29.4728L185.459 29.4692L186.586 29.1642L187.303 29.5164L185.97 29.8622C185.88 29.8873 185.828 29.9742 185.854 30.0564C185.875 30.1234 185.941 30.1691 186.015 30.1691H186.02C186.03 30.1691 186.046 30.1683 186.067 30.1627L187.725 29.7287L190.273 30.9969L188.213 31.0495C188.12 31.0527 188.043 31.1329 188.043 31.2189C188.046 31.3018 188.121 31.3747 188.216 31.3747H188.22L190.031 31.3221L187.515 32.8171L185.958 32.4386C185.945 32.4354 185.929 32.4329 185.914 32.4329C185.834 32.4329 185.767 32.4786 185.745 32.5479C185.721 32.6323 185.773 32.7164 185.862 32.7383L187.131 33.0439L186.458 33.4427L185.351 33.1856C185.339 33.1827 185.325 33.1815 185.312 33.1815C185.232 33.1815 185.162 33.23 185.142 33.2971C185.13 33.3376 185.136 33.3793 185.159 33.4152C185.182 33.4512 185.22 33.4767 185.264 33.4868L186.068 33.674L184.979 34.3219C184.901 34.3679 184.878 34.4682 184.928 34.5403C184.959 34.5827 185.014 34.6086 185.074 34.6086C185.104 34.6078 185.137 34.5981 185.168 34.5807L186.23 33.9462L186.064 34.6883C186.054 34.73 186.063 34.7712 186.087 34.8055C186.113 34.8395 186.149 34.8629 186.193 34.871C186.207 34.8731 186.22 34.8743 186.235 34.8743C186.316 34.8715 186.384 34.8205 186.397 34.7497L186.632 33.7085L187.318 33.3004L187.032 34.5225C187.022 34.5637 187.032 34.6061 187.059 34.6414C187.083 34.6742 187.12 34.6964 187.163 34.704L187.168 34.7048C187.172 34.7061 187.186 34.7076 187.205 34.7076C187.27 34.7064 187.351 34.6592 187.369 34.5819L187.722 33.0589L190.299 31.5279L189.378 33.0573C189.356 33.0941 189.351 33.1358 189.365 33.1754C189.378 33.2147 189.408 33.2474 189.449 33.2668L189.453 33.2688C189.473 33.2797 189.5 33.2859 189.525 33.2859H189.529C189.595 33.2846 189.65 33.2551 189.679 33.2049L190.592 31.6889L190.635 34.2543L189.454 35.2391C189.383 35.2977 189.378 35.3972 189.442 35.4611C189.473 35.4922 189.515 35.5092 189.561 35.5092C189.605 35.5092 189.648 35.4939 189.682 35.4659L190.642 34.6673L190.653 35.3944L189.825 36.0968C189.756 36.1534 189.753 36.2537 189.816 36.3172C189.849 36.3475 189.893 36.3637 189.939 36.3637C189.984 36.3637 190.027 36.3484 190.061 36.3204L190.657 35.8117L190.679 36.9606C190.679 37.0471 190.751 37.1162 190.845 37.1162H190.849C190.944 37.1162 191.02 37.0371 191.02 36.9492L191.002 35.817L191.618 36.3406C191.654 36.3701 191.69 36.3844 191.727 36.3815L191.734 36.3811C191.78 36.3811 191.826 36.3641 191.861 36.3325C191.893 36.3014 191.91 36.2622 191.907 36.2213C191.906 36.1805 191.886 36.1421 191.852 36.1133L190.991 35.3777L190.984 34.643L191.984 35.5092C192.015 35.5375 192.052 35.5472 192.099 35.5472H192.102C192.151 35.5472 192.191 35.5339 192.227 35.502C192.267 35.4663 192.274 35.4284 192.274 35.4008C192.274 35.3584 192.254 35.3175 192.218 35.2876L190.976 34.199L190.932 31.6318L192.03 33.1382C192.06 33.1811 192.113 33.207 192.171 33.207C192.208 33.2042 192.236 33.1964 192.264 33.1806C192.344 33.1301 192.368 33.0346 192.319 32.961L191.238 31.4793L193.981 32.8487L194.322 34.2556C194.34 34.3267 194.408 34.3705 194.491 34.3705H194.495C194.508 34.3705 194.514 34.3736 194.517 34.3733L194.525 34.3737C194.57 34.3648 194.609 34.3418 194.634 34.3053C194.659 34.2702 194.667 34.2302 194.656 34.1914L194.386 33.0497L195.082 33.3958L195.332 34.3927C195.351 34.4615 195.418 34.51 195.495 34.51H195.503C195.512 34.51 195.521 34.5084 195.534 34.5068L195.541 34.5056C195.584 34.4958 195.621 34.4711 195.646 34.436C195.67 34.4003 195.679 34.3587 195.668 34.3186L195.485 33.6001L196.582 34.1476C196.614 34.1614 196.641 34.1674 196.665 34.1674H196.674C196.753 34.1666 196.798 34.1218 196.822 34.0845C196.844 34.0489 196.85 34.0068 196.838 33.9668C196.826 33.9268 196.797 33.8941 196.758 33.8743" fill="#7CB5C1"/>
<path d="M53.5739 34.4255C53.5739 35.6245 52.4895 36.5973 51.1523 36.5973H32.6258C31.2882 36.5973 30.204 35.6245 30.204 34.4255V28.0017C30.204 26.8021 31.2882 25.8299 32.6258 25.8299H51.1523C52.4895 25.8299 53.5739 26.8021 53.5739 28.0017V34.4255Z" fill="#B3DEE7"/>
<path d="M53.2538 28.021C53.2538 26.9694 52.3034 26.117 51.1311 26.117H32.4867C31.3144 26.117 30.364 26.9694 30.364 28.021V34.4063C30.364 35.4579 31.3144 36.3102 32.4867 36.3102H51.1311C52.3034 36.3102 53.2538 35.4579 53.2538 34.4063V28.021ZM51.1284 36.8845H32.5704C32.2031 36.8845 31.8466 36.8328 31.511 36.7056C31.187 36.5822 30.896 36.4126 30.6462 36.1886C30.3964 35.9645 30.1775 35.7068 30.0405 35.4161C29.8984 35.1154 29.8038 34.7988 29.8038 34.469V28.0309C29.8038 27.7016 29.8984 27.3818 30.0405 27.0806C30.1775 26.7904 30.385 26.5289 30.6349 26.3048C30.8845 26.0812 31.1814 25.9172 31.5054 25.7944C31.841 25.6666 32.2031 25.6143 32.5704 25.6143H51.1284C51.4959 25.6143 51.8521 25.6666 52.1875 25.7944C52.5117 25.9172 52.8025 26.0873 53.0527 26.3108C53.3025 26.5349 53.5207 26.7932 53.6577 27.0839C53.7998 27.3851 53.894 27.7016 53.894 28.0309V34.469C53.894 34.7988 53.7998 35.1182 53.6577 35.4194C53.5207 35.7101 53.3133 35.9711 53.0635 36.1952C52.8137 36.4193 52.5171 36.5822 52.1934 36.7056C51.8575 36.8328 51.4959 36.8845 51.1284 36.8845Z" fill="#848485"/>
<path d="M33.1309 31.8587L32.4243 31.3136V29.9187L33.1309 29.6464V31.8587ZM33.1309 29.507L32.4243 29.1909V27.8446L33.1309 27.3011V29.507" fill="white"/>
<path d="M37.4105 31.2188L37.0546 31.4911L36.704 31.2188V29.9644L37.4105 29.6479V31.2188ZM37.4105 29.5079L36.704 29.2362V27.9375L37.0546 27.6647L37.4105 27.9375V29.5079ZM36.9504 27.5831L36.5889 27.8483H34.8691L34.5077 27.5831L34.8691 27.3038H36.5889L36.9504 27.5831ZM37.2464 29.5787L36.591 29.8251L34.8767 29.8186L34.216 29.5819L34.8928 29.274H36.5774L37.2464 29.5787ZM36.9504 31.5797L36.5889 31.8585H34.1901L34.8691 31.3139H36.5889L36.9504 31.5797ZM34.7487 29.2362L34.0422 29.5079V27.9375L34.3927 27.6647L34.7487 27.9375V29.2362Z" fill="white"/>
<path d="M40.4489 31.8584H39.1728L38.9827 31.7119L39.1728 31.5717H40.0773L40.4489 31.8584ZM40.4489 29.4632L40.0773 29.7494H39.1728L38.9827 29.6097L39.1728 29.4632H40.4489ZM39.1095 31.5222L38.9222 31.665L38.7379 31.5222V30.6958L39.1095 30.8618V31.5222ZM39.1095 30.4792L38.7379 30.6221V29.7963L38.9222 29.6529L39.1095 29.7963V30.4792Z" fill="white"/>
<path d="M38.3281 29.0089C38.1823 29.0089 38.0639 29.1155 38.0639 29.2459C38.0639 29.3764 38.1823 29.483 38.3281 29.483C38.4738 29.483 38.5923 29.3764 38.5923 29.2459C38.5923 29.1155 38.4738 29.0089 38.3281 29.0089ZM38.3281 29.5843C38.1202 29.5843 37.9509 29.4326 37.9509 29.2459C37.9509 29.0598 38.1202 28.9075 38.3281 28.9075C38.536 28.9075 38.7052 29.0598 38.7052 29.2459C38.7052 29.4326 38.536 29.5843 38.3281 29.5843Z" fill="white"/>
<path d="M52.7737 32.453C52.7737 32.5218 52.7119 32.5773 52.6353 32.5773H31.063C30.9864 32.5773 30.9243 32.5218 30.9243 32.453V32.4148C30.9243 32.346 30.9864 32.2904 31.063 32.2904H52.6353C52.7119 32.2904 52.7737 32.346 52.7737 32.4148V32.453" fill="white"/>
<path d="M48.5187 29.3405C48.5291 29.3229 48.5345 29.3032 48.5345 29.2818C48.5345 29.2728 48.5336 29.2632 48.5313 29.2547C48.5841 29.2078 48.6711 29.1406 48.7193 29.1619C48.7914 29.1939 49.0065 29.3938 49.1869 29.2163C49.3672 29.0377 49.378 28.8875 49.2725 28.7915C49.2725 28.7915 48.9907 28.5389 48.7684 28.6514C48.5674 28.7532 48.5913 29.01 48.4632 29.1694C48.4411 29.1577 48.4159 29.1513 48.3888 29.1513C48.3645 29.1513 48.3415 29.1566 48.3212 29.1662C48.2581 29.1315 48.167 29.0724 48.1783 29.026C48.1958 28.9557 48.3618 28.7206 48.126 28.6055C47.8906 28.4909 47.7247 28.5171 47.6458 28.6322C47.6458 28.6322 47.4393 28.9376 47.6138 29.1038C47.772 29.2557 48.0448 29.1736 48.2486 29.2477C48.2454 29.2584 48.2437 29.2696 48.2437 29.2818C48.2437 29.3101 48.2531 29.3351 48.2698 29.357C48.2175 29.4039 48.1292 29.4726 48.0804 29.4513C48.0083 29.4193 47.7933 29.2189 47.6129 29.397C47.4325 29.575 47.4213 29.7258 47.5272 29.8212C47.5272 29.8212 47.8086 30.0743 48.0308 29.9619C48.2468 29.8526 48.204 29.5654 48.3672 29.4108C48.374 29.4119 48.3816 29.4124 48.3888 29.4124C48.401 29.4124 48.4123 29.4108 48.4236 29.4087C48.4763 29.4348 48.6192 29.511 48.6052 29.5691C48.5877 29.6395 48.4217 29.8745 48.6576 29.9891C48.8929 30.1042 49.0588 30.0776 49.1377 29.963C49.1377 29.963 49.3442 29.6576 49.1698 29.4908C49.007 29.3352 48.7238 29.4258 48.5187 29.3405" fill="white"/>
<path d="M48.6918 31.9315H48.2117V30.711H48.6918V31.9315" fill="white"/>
<path d="M49.2525 31.9309H48.8521V30.2799H49.2525V31.9309Z" fill="white"/>
<path d="M49.8926 31.9312H49.5725V29.8495H49.8926V31.9312Z" fill="white"/>
<path d="M50.6127 31.9313H50.2127V29.3472H50.6127V31.9313Z" fill="white"/>
<path d="M51.2532 31.9317H50.8528V28.9168H51.2532V31.9317Z" fill="white"/>
<path d="M42.7999 31.8587H41.8102L41.6627 31.7648L41.8102 31.6756H42.5116L42.7999 31.8587ZM42.7999 30.3281L42.5116 30.5112H41.8102L41.6627 30.422L41.8102 30.3281H42.7999ZM41.761 31.6437L41.6157 31.735L41.4728 31.6437V31.1158L41.761 31.2222V31.6437ZM41.761 30.9776L41.4728 31.0688V30.5409L41.6157 30.4496L41.761 30.5409V30.9776" fill="white"/>
<path d="M44.3392 31.6437L44.194 31.735L44.0511 31.6437V31.2071L44.3392 31.1158V31.6437ZM44.3392 31.0688L44.0511 30.9624V30.5409L44.194 30.4496L44.3392 30.5409V31.0688ZM44.1516 31.7648L44.0042 31.8587H43.3027L43.1552 31.7648L43.3027 31.6756H44.0042L44.1516 31.7648ZM44.1516 30.422L44.0042 30.5112H43.3027L43.1552 30.422L43.3027 30.3281H44.0042L44.1516 30.422ZM43.2535 31.6437L43.1083 31.735L42.9652 31.6437V31.1158L43.2535 31.2071V31.6437ZM43.2535 30.9624L42.9652 31.0688V30.5409L43.1083 30.4496L43.2535 30.5409V30.9624" fill="white"/>
<path d="M45.9992 31.6437L45.8541 31.735L45.7112 31.6437V31.2071L45.9992 31.1158V31.6437ZM45.9992 31.0688L45.7112 30.9624V30.5409L45.8541 30.4496L45.9992 30.5409V31.0688ZM45.8117 31.7648L45.6643 31.8587H44.9627L44.8153 31.7648L44.9627 31.6756H45.6643L45.8117 31.7648ZM45.8117 30.422L45.6643 30.5112H44.9627L44.8153 30.422L44.9627 30.3281H45.6643L45.8117 30.422ZM44.9131 31.6437L44.7684 31.735L44.6254 31.6437V31.1158L44.9131 31.2071V31.6437ZM44.9131 30.9624L44.6254 31.0688V30.5409L44.7684 30.4496L44.9131 30.5409V30.9624" fill="white"/>
<path d="M47.614 31.8585H46.3322L46.6226 31.6754H47.325L47.614 31.8585ZM46.5734 31.6426L46.2853 31.8293V31.1157L46.5734 31.2069V31.6426ZM46.5734 30.9628L46.2853 31.0687V30.3274L46.5734 30.51V30.9628Z" fill="white"/>
<path d="M41.1687 32.434H40.9286V26.5477H41.1687V32.434Z" fill="white"/>
<path d="M45.4893 35.3303L45.2089 35.1185V34.5775L45.4893 34.4716V35.3303ZM45.4893 34.4174L45.2089 34.295V33.7726L45.4893 33.5613V34.4174" fill="white"/>
<path d="M47.6301 35.0815L47.489 35.1869L47.3501 35.0815V34.5942L47.6301 34.4713V35.0815ZM47.6301 34.4171L47.3501 34.3117V33.8079L47.489 33.702L47.6301 33.8079V34.4171ZM47.4475 33.6698L47.3046 33.7732H46.6224L46.4795 33.6698L46.6224 33.562H47.3046L47.4475 33.6698ZM47.5652 34.4447L47.305 34.54L46.6256 34.5375L46.3636 34.4462L46.6319 34.3263H47.2996L47.5652 34.4447ZM47.4475 35.221L47.3046 35.3294H46.3533L46.6224 35.1182H47.3046L47.4475 35.221ZM46.5751 34.3117L46.2946 34.4171V33.8079L46.4335 33.702L46.5751 33.8079V34.3117" fill="white"/>
<path d="M48.1428 35.3294H47.8628V34.9479H48.1428V35.3294ZM48.1428 34.5425H47.8628V34.1789H48.1428V34.5425Z" fill="white"/>
<path d="M49.5693 35.0815L49.4282 35.1869L49.2894 35.0815V34.5772L49.5693 34.4713V35.0815ZM49.5693 34.4171L49.2894 34.2941V33.8079L49.4282 33.702L49.5693 33.8079V34.4171ZM49.504 34.4442L49.2447 34.542L48.5621 34.5375L48.2992 34.4407L48.5594 34.3263H49.2357L49.504 34.4442ZM49.3867 35.221L49.2434 35.3294H48.2925L48.5617 35.1182H49.2434L49.3867 35.221ZM49.3867 33.6698L49.2434 33.7732H48.5617L48.2925 33.562H49.2434L49.3867 33.6698" fill="white"/>
<path d="M51.2998 35.0815L51.1587 35.1869L51.0198 35.0815V34.5772L51.2998 34.4713V35.0815ZM51.1176 35.221L50.9743 35.3294H50.2925L50.1492 35.221L50.2925 35.1182H50.9743L51.1176 35.221ZM51.2411 33.562L50.9743 33.7732H50.2925L50.1492 33.6698L50.2925 33.562H51.2411ZM51.2358 34.4442L50.9756 34.542L50.2912 34.5425L50.0292 34.4442L50.2979 34.3262H50.9747L51.2358 34.4442ZM50.2443 35.0815L50.1036 35.1869L49.9643 35.0815V34.4713L50.2443 34.5772V35.0815ZM50.2443 34.2941L49.9643 34.4171V33.8079L50.1036 33.702L50.2443 33.8079V34.2941" fill="white"/>
<path d="M33.9015 33.7572C33.9015 34.1044 33.6926 34.2273 33.4348 34.2273C33.1769 34.2273 32.9678 34.1044 32.9678 33.7572C32.9678 33.4104 33.4348 32.9707 33.4348 32.9707C33.4348 32.9707 33.9015 33.4104 33.9015 33.7572Z" fill="white"/>
<path d="M32.6171 34.918L32.4578 34.7927C32.4764 34.7738 32.9151 34.3319 33.4386 34.4492C33.5565 34.4755 33.6706 34.5148 33.781 34.5521C34.1251 34.6699 34.4504 34.7813 34.9413 34.561L35.0358 34.7305C34.7969 34.8379 34.5879 34.8767 34.3997 34.8767C34.1355 34.8767 33.9124 34.8001 33.7055 34.7296C33.5963 34.6923 33.493 34.657 33.3872 34.6331C32.9899 34.5441 32.6207 34.914 32.6171 34.918" fill="white"/>
<path d="M32.6171 35.4017L32.4579 35.2767C32.4765 35.2579 32.9151 34.8157 33.4386 34.9328C33.5566 34.9595 33.6706 34.9985 33.7811 35.0361C34.1252 35.1537 34.4505 35.2649 34.9413 35.045L35.0359 35.2149C34.797 35.3217 34.588 35.3602 34.3997 35.3602C34.1355 35.3602 33.9125 35.2841 33.7056 35.213C33.5963 35.1759 33.493 35.1408 33.3873 35.1171C32.9899 35.0282 32.6207 35.3978 32.6171 35.4017" fill="white"/>
<path d="M32.617 35.9058L32.4577 35.781C32.4763 35.7619 32.915 35.3199 33.4385 35.4373C33.5564 35.4633 33.6705 35.5026 33.7809 35.5404C34.125 35.6578 34.4503 35.7693 34.9411 35.5493L35.0357 35.7187C34.7968 35.8257 34.5878 35.8645 34.3996 35.8645C34.1354 35.8645 33.9124 35.7884 33.7054 35.7177C33.5962 35.6804 33.4929 35.645 33.3871 35.6215C32.9897 35.5321 32.6206 35.9023 32.617 35.9058Z" fill="white"/>
<path d="M37.1417 34.7606L36.8617 34.6372V34.1489L37.0006 34.043L37.1417 34.1489V34.7606ZM37.1417 35.6757H36.1345L35.9914 35.5667L36.1345 35.4633H36.8748L37.1417 35.6757ZM37.078 34.7881L36.8151 34.8816L36.1331 34.8866L35.8722 34.7876L36.1327 34.6692H36.8084L37.078 34.7881ZM36.0868 35.4268L35.9457 35.5328L35.8068 35.4268V34.8146L36.0868 34.9211V35.4268ZM36.9595 34.011L36.8161 34.1145H35.8068L36.1345 33.9021H36.8161L36.9595 34.011" fill="white"/>
<path d="M38.7544 35.4268L38.6134 35.5328L38.4745 35.4268V34.9211L38.7544 34.8146V35.4268ZM38.7544 34.7606L38.4745 34.6372V34.1489L38.6134 34.043L38.7544 34.1489V34.7606ZM38.5722 35.5667L38.4288 35.6757H37.7472L37.604 35.5667L37.7472 35.4633H38.4288L38.5722 35.5667ZM38.5722 34.011L38.4288 34.1145H37.7472L37.604 34.011L37.7472 33.9021H38.4288L38.5722 34.011ZM38.6894 34.7871L38.4301 34.8856L37.7458 34.8866L37.4845 34.7871L37.7528 34.6692H38.4211L38.6894 34.7871ZM37.6995 35.4268L37.5585 35.5328L37.4194 35.4268V34.8146L37.6995 34.9211V35.4268ZM37.6995 34.6372L37.4194 34.7606V34.1489L37.5585 34.043L37.6995 34.1489V34.6372" fill="white"/>
<path d="M41.3067 108C40.6025 108 40.0202 107.499 39.9967 106.862C39.8746 103.58 42.3362 101.496 44.314 99.8206C45.6603 98.6806 46.8231 97.6963 46.8231 96.7282C46.8231 95.8053 45.4452 94.9674 43.9871 94.0802C41.8802 92.799 39.258 91.2041 39.258 88.288C39.258 84.9464 42.3623 82.8476 44.6287 81.3149C45.36 80.8207 46.3609 80.1438 46.5075 79.8506C47.017 78.1307 46.1197 77.2244 46.081 77.1868C45.5688 76.7274 45.5782 75.9914 46.0904 75.5316C46.6022 75.0726 47.4421 75.0811 47.9548 75.5405C48.7014 76.2102 49.7691 78.0049 49.0328 80.4818C48.7343 81.4852 47.6193 82.2394 46.2081 83.1937C44.2802 84.4971 41.8811 86.1192 41.8811 88.288C41.8811 89.8408 43.2977 90.8183 45.4592 92.133C47.3281 93.2697 49.4462 94.5578 49.4462 96.7282C49.4462 98.7101 47.7523 100.145 46.1148 101.531C44.2743 103.09 42.5355 104.562 42.6183 106.784C42.6424 107.434 42.0753 107.977 41.3512 107.999C41.3364 108 41.3214 108 41.3067 108" fill="#88D7F0"/>
<path d="M87.6566 108C86.9524 108 86.3703 107.499 86.3462 106.862C86.2247 103.58 88.6861 101.496 90.664 99.8206C92.0105 98.6806 93.1729 97.6963 93.1729 96.7281C93.1729 95.8053 91.7952 94.9674 90.3369 94.0801C88.2303 92.799 85.6077 91.204 85.6077 88.2879C85.6077 84.9464 88.712 82.8476 90.9792 81.3148C91.7098 80.8207 92.7111 80.1437 92.8572 79.8505C93.3672 78.1306 92.4694 77.2243 92.4309 77.1867C91.9185 76.7273 91.9281 75.9914 92.4405 75.5315C92.9523 75.0726 93.7924 75.081 94.3047 75.5404C95.0516 76.2101 96.1191 78.0048 95.383 80.4818C95.0841 81.4851 93.9692 82.2393 92.5584 83.1937C90.6304 84.4971 88.2309 86.1191 88.2309 88.2879C88.2309 89.8408 89.6477 90.8182 91.809 92.1329C93.6781 93.2697 95.7961 94.5577 95.7961 96.7281C95.7961 98.7101 94.1021 100.145 92.4645 101.531C90.6243 103.09 88.8852 104.562 88.9682 106.784C88.9922 107.434 88.4251 107.977 87.7011 107.999C87.6867 108 87.6716 108 87.6566 108" fill="#88D7F0"/>
<path d="M134.007 108C133.302 108 132.721 107.499 132.697 106.862C132.574 103.58 135.036 101.496 137.014 99.8206C138.36 98.6806 139.523 97.6963 139.523 96.7282C139.523 95.8053 138.145 94.9674 136.687 94.0801C134.58 92.799 131.958 91.2041 131.958 88.2879C131.958 84.9464 135.062 82.8476 137.328 81.3149C138.06 80.8207 139.061 80.1437 139.208 79.8506C139.717 78.1306 138.819 77.2244 138.781 77.1868C138.269 76.7274 138.278 75.9914 138.79 75.5316C139.302 75.0726 140.142 75.0811 140.655 75.5405C141.402 76.2102 142.469 78.0049 141.733 80.4818C141.434 81.4851 140.319 82.2394 138.908 83.1937C136.98 84.4971 134.581 86.1192 134.581 88.2879C134.581 89.8408 135.998 90.8183 138.159 92.133C140.028 93.2697 142.146 94.5578 142.146 96.7282C142.146 98.7101 140.452 100.145 138.814 101.531C136.974 103.09 135.235 104.562 135.318 106.784C135.342 107.434 134.775 107.977 134.051 107.999C134.036 108 134.021 108 134.007 108" fill="#88D7F0"/>
<path d="M180.357 108C179.652 108 179.07 107.499 179.046 106.862C178.924 103.58 181.385 101.496 183.364 99.8206C184.709 98.6806 185.872 97.6963 185.872 96.7281C185.872 95.8053 184.495 94.9674 183.037 94.0802C180.93 92.799 178.308 91.2041 178.308 88.2879C178.308 84.9464 181.412 82.8476 183.679 81.3149C184.409 80.8208 185.41 80.1437 185.558 79.8505C186.067 78.1306 185.169 77.2244 185.131 77.1868C184.618 76.7274 184.627 75.9914 185.14 75.5316C185.651 75.0727 186.491 75.081 187.004 75.5405C187.752 76.2102 188.819 78.0049 188.083 80.4819C187.784 81.4852 186.669 82.2393 185.258 83.1937C183.33 84.4971 180.931 86.1192 180.931 88.2879C180.931 89.8408 182.347 90.8183 184.509 92.133C186.378 93.2698 188.496 94.5577 188.496 96.7281C188.496 98.7101 186.801 100.145 185.165 101.531C183.324 103.09 181.585 104.562 181.668 106.784C181.692 107.434 181.124 107.977 180.401 107.999C180.386 108 180.371 108 180.357 108" fill="#88D7F0"/>
<defs>
<linearGradient id="paint0_linear" x1="112.5" y1="0" x2="112.5" y2="165" gradientUnits="userSpaceOnUse">
<stop stop-color="#A8587A"/>
<stop offset="0.0001" stop-color="#C0E8BF" stop-opacity="0.955"/>
<stop offset="0.484375" stop-color="#80F294" stop-opacity="0.628082"/>
<stop offset="1" stop-color="#3CFE67" stop-opacity="0.28"/>
</linearGradient>
</defs>
</svg>
